{"title":"Later with Jools Holland.s36e01 (16th April 2010)[DTV-RIP-Divx]","uid":5500441,"size":619458765,"categoryP":"video","categoryS":"music_videos","magnet":"?xt=urn:btih:2a4ab32cc1aa914a5c3e1f56d96f2a8f37133047&amp;dn=Later+with+Jools+Holland.s36e01+%2816th+April+2010%29%5BDTV-RIP-Divx%5D&amp;tr=udp%3A%2F%2Ftracker.openbittorrent.com%3A80&amp;tr=udp%3A%2F%2Fopen.demonii.com%3A1337&amp;tr=udp%3A%2F%2Ftracker.coppersurfer.tk%3A6969&amp;tr=udp%3A%2F%2Fexodus.desync.com%3A6969","seeders":0,"leechers":0,"uploader":"seanprince","files":-1,"time":1271509693,"description":"Later with Jools Holland.s36e01 (16th April 2010)[DTV-RIP-Divx]\n\nFirst Shown On BBC 2 On Friday 16th April 2010\n\n\nDescription:\n\n\nPaul Weller\n\nPaul Weller has just released his 10th album Wake up the Nation and we welcomed the mod-father back to Later. Having just hit 50, he was awarded the NME Godlike Genius award this year.\n\nHot Chip\n\nHot Chip made their third appearance in the Later studio to play tracks from their recent fourth album, One Life Stand ahead of summer festival slots.\n\nMarina And The Diamonds\n\nMarina And The Diamonds made her debut in the Later studio. Marina was runner-up in the BBC's Sound of 2010 poll. Don't be fooled, the Diamonds are not her band but you, her fans!\n\nGogol Bordello\n\nGogol Bordello are one of the world's hardest working bands. The gypsy-punk outfit performed tunes from their new album, Trans-Continental Hustle.\n\nVillagers\n\nVillagers is Dublin-born singer-songrwiter Conor J. O'Brien's recording alias. He's already supported Neil Young and Wild Beasts.\n\nPaul Rodgers\n\nPaul Rodgers is one of the best-known vocalists of all time, having fronted Free, Bad Company and, more recently, Queen.\n\nPolar Bear\n\nPolar Bear feature percussionist Seb Rochford, who has played with everyone from Brian Eno to Pete Doherty. The Mercury-nominated outfit made their first appearance on Later.\n\n\n\nComplete name : Later.s36e01\nFormat : AVI\nFormat/Info : Audio Video Interleave\nFile size : 591 MiB\nDuration : 1h 3mn\nOverall bit rate : 1 302 Kbps\n\nVideo\nID : 0\nFormat : MPEG-4 Visual\nFormat settings, BVOP : Yes\nFormat settings, QPel : No\nFormat settings, GMC : No warppoints\nFormat settings, Matrix : Default (H.263)\nMuxing mode : Packed bitstream\nCodec ID : DX50\nCodec ID/Hint : DivX 5\nDuration : 1h 3mn\nBit rate : 1 100 Kbps\nWidth : 704 pixels\nHeight : 512 pixels\nDisplay aspect ratio : 1.375\nFrame rate : 25.000 fps\nResolution : 8 bits\nColorimetry : 4:2:0\nScan type : Progressive\nBits/(Pixel*Frame) : 0.122\nStream size : 499 MiB (85%)\nTitle : Video\nWriting library : DivX 6.8.2 (UTC 2008-05-17)\n\nAudio\nID : 1\nFormat : AC-3\nFormat/Info : Audio Coding 3\nCodec ID : 2000\nDuration : 1h 3mn\nBit rate mode : Constant\nBit rate : 192 Kbps\nChannel(s) : 2 channels\nChannel positions : Front: L R\nSampling rate : 48.0 KHz\nStream size : 87.1 MiB (15%)\nAlignment : Split accross interleaves\nInterleave, duration : 40 ms (1.00 video frame)\nInterleave, preload duration : 500 ms\n","torrent":{"xt":"urn:btih:2a4ab32cc1aa914a5c3e1f56d96f2a8f37133047","amp;dn":"Later+with+Jools+Holland.s36e01+%2816th+April+2010%29%5BDTV-RIP-Divx%5D","amp;tr":["udp%3A%2F%2Ftracker.openbittorrent.com%3A80","udp%3A%2F%2Fopen.demonii.com%3A1337","udp%3A%2F%2Ftracker.coppersurfer.tk%3A6969","udp%3A%2F%2Fexodus.desync.com%3A6969"],"infoHash":"2a4ab32cc1aa914a5c3e1f56d96f2a8f37133047","infoHashBuffer":{"type":"Buffer","data":[42,74,179,44,193,170,145,74,92,62,31,86,217,111,42,143,55,19,48,71]},"announce":[],"urlList":[]}}